<svg viewBox="0 0 16 17" fill="#000" xmlns="http://www.w3.org/2000/svg">
<path d="M8.00039 2.8999C4.92039 2.8999 2.40039 5.4199 2.40039 8.4999C2.40039 11.5799 4.92039 14.0999 8.00039 14.0999C11.0804 14.0999 13.6004 11.5799 13.6004 8.4999C13.6004 5.4199 11.0804 2.8999 8.00039 2.8999ZM8.70039 10.5999C8.70039 10.9865 8.38699 11.2999 8.00039 11.2999V11.2999C7.61379 11.2999 7.30039 10.9865 7.30039 10.5999V8.4999C7.30039 8.1133 7.61379 7.7999 8.00039 7.7999V7.7999C8.38699 7.7999 8.70039 8.1133 8.70039 8.4999V10.5999ZM8.00039 7.0999C7.58039 7.0999 7.30039 6.8199 7.30039 6.3999C7.30039 5.9799 7.58039 5.6999 8.00039 5.6999C8.42039 5.6999 8.70039 5.9799 8.70039 6.3999C8.70039 6.8199 8.42039 7.0999 8.00039 7.0999Z" />
</svg>
